# xmcd
#
# Track frame offsets:
# 150
# 6100
# 17225
# 29800
# 43650
# 53850
# 69662
# 92075
# 114562
# 133387
#
# Disc length: 2005 seconds
#
#
# Revision: 0
# Processed by: cddbd v1.5.1PL2 Copyright (c) Steve Scherf et al.
# Submitted via: FreeRIP 2.944 
#
DISCID=8f07d30a
DTITLE=Eric Clapton - Big Boss Man
DYEAR=1900
DGENRE=Blues
TTITLE0=choker
TTITLE1=Snake Drive
TTITLE2=Freight Loader
TTITLE3=Dragging my tail
TTITLE4=I wish you would
TTITLE5=Louise
TTITLE6=Five Long Years
TTITLE7=The first time I met the Blues
TTITLE8=Stormy Monday Blues
TTITLE9=Gig Boss Man
EXTD=
EXTT0=choker
EXTT1=Snake Drive
EXTT2=Freight Loader
EXTT3=
EXTT4=
EXTT5=
EXTT6=
EXTT7=
EXTT8=
EXTT9=
PLAYORDER=
